<?xml version="1.0" standalone="no"?>
<svg xmlns:xlink="http://www.w3.org/1999/xlink" id="wave" style="transform:rotate(0deg); transition: 0.3s" viewBox="0 0 1440 360" version="1.1" xmlns="http://www.w3.org/2000/svg"><defs><linearGradient id="sw-gradient-0" x1="0" x2="0" y1="1" y2="0"><stop stop-color="rgba(243, 106, 62, 1)" offset="0%"/><stop stop-color="rgba(255, 179, 11, 1)" offset="100%"/></linearGradient></defs><path style="transform:translate(0, 0px); opacity:1" fill="url(#sw-gradient-0)" d="M0,0L80,42C160,84,320,168,480,186C640,204,800,156,960,150C1120,144,1280,180,1440,204C1600,228,1760,240,1920,252C2080,264,2240,276,2400,258C2560,240,2720,192,2880,174C3040,156,3200,168,3360,150C3520,132,3680,84,3840,96C4000,108,4160,180,4320,186C4480,192,4640,132,4800,120C4960,108,5120,144,5280,144C5440,144,5600,108,5760,126C5920,144,6080,216,6240,234C6400,252,6560,216,6720,180C6880,144,7040,108,7200,102C7360,96,7520,120,7680,138C7840,156,8000,168,8160,162C8320,156,8480,132,8640,114C8800,96,8960,84,9120,114C9280,144,9440,216,9600,234C9760,252,9920,216,10080,222C10240,228,10400,276,10560,246C10720,216,10880,108,11040,54C11200,0,11360,0,11440,0L11520,0L11520,360L11440,360C11360,360,11200,360,11040,360C10880,360,10720,360,10560,360C10400,360,10240,360,10080,360C9920,360,9760,360,9600,360C9440,360,9280,360,9120,360C8960,360,8800,360,8640,360C8480,360,8320,360,8160,360C8000,360,7840,360,7680,360C7520,360,7360,360,7200,360C7040,360,6880,360,6720,360C6560,360,6400,360,6240,360C6080,360,5920,360,5760,360C5600,360,5440,360,5280,360C5120,360,4960,360,4800,360C4640,360,4480,360,4320,360C4160,360,4000,360,3840,360C3680,360,3520,360,3360,360C3200,360,3040,360,2880,360C2720,360,2560,360,2400,360C2240,360,2080,360,1920,360C1760,360,1600,360,1440,360C1280,360,1120,360,960,360C800,360,640,360,480,360C320,360,160,360,80,360L0,360Z"/><defs><linearGradient id="sw-gradient-1" x1="0" x2="0" y1="1" y2="0"><stop stop-color="rgba(243, 106, 62, 1)" offset="0%"/><stop stop-color="rgba(255, 179, 11, 1)" offset="100%"/></linearGradient></defs><path style="transform:translate(0, 50px); opacity:0.9" fill="url(#sw-gradient-1)" d="M0,252L80,258C160,264,320,276,480,240C640,204,800,120,960,84C1120,48,1280,60,1440,96C1600,132,1760,192,1920,228C2080,264,2240,276,2400,258C2560,240,2720,192,2880,174C3040,156,3200,168,3360,168C3520,168,3680,156,3840,126C4000,96,4160,48,4320,42C4480,36,4640,72,4800,78C4960,84,5120,60,5280,42C5440,24,5600,12,5760,60C5920,108,6080,216,6240,216C6400,216,6560,108,6720,84C6880,60,7040,120,7200,144C7360,168,7520,156,7680,126C7840,96,8000,48,8160,54C8320,60,8480,120,8640,168C8800,216,8960,252,9120,222C9280,192,9440,96,9600,96C9760,96,9920,192,10080,204C10240,216,10400,144,10560,126C10720,108,10880,144,11040,174C11200,204,11360,228,11440,240L11520,252L11520,360L11440,360C11360,360,11200,360,11040,360C10880,360,10720,360,10560,360C10400,360,10240,360,10080,360C9920,360,9760,360,9600,360C9440,360,9280,360,9120,360C8960,360,8800,360,8640,360C8480,360,8320,360,8160,360C8000,360,7840,360,7680,360C7520,360,7360,360,7200,360C7040,360,6880,360,6720,360C6560,360,6400,360,6240,360C6080,360,5920,360,5760,360C5600,360,5440,360,5280,360C5120,360,4960,360,4800,360C4640,360,4480,360,4320,360C4160,360,4000,360,3840,360C3680,360,3520,360,3360,360C3200,360,3040,360,2880,360C2720,360,2560,360,2400,360C2240,360,2080,360,1920,360C1760,360,1600,360,1440,360C1280,360,1120,360,960,360C800,360,640,360,480,360C320,360,160,360,80,360L0,360Z"/><defs><linearGradient id="sw-gradient-2" x1="0" x2="0" y1="1" y2="0"><stop stop-color="rgba(243, 106, 62, 1)" offset="0%"/><stop stop-color="rgba(255, 179, 11, 1)" offset="100%"/></linearGradient></defs><path style="transform:translate(0, 100px); opacity:0.8" fill="url(#sw-gradient-2)" d="M0,324L80,294C160,264,320,204,480,174C640,144,800,144,960,156C1120,168,1280,192,1440,168C1600,144,1760,72,1920,84C2080,96,2240,192,2400,210C2560,228,2720,168,2880,162C3040,156,3200,204,3360,198C3520,192,3680,132,3840,96C4000,60,4160,48,4320,90C4480,132,4640,228,4800,222C4960,216,5120,108,5280,72C5440,36,5600,72,5760,96C5920,120,6080,132,6240,144C6400,156,6560,168,6720,150C6880,132,7040,84,7200,90C7360,96,7520,156,7680,204C7840,252,8000,288,8160,270C8320,252,8480,180,8640,180C8800,180,8960,252,9120,234C9280,216,9440,108,9600,108C9760,108,9920,216,10080,240C10240,264,10400,204,10560,162C10720,120,10880,96,11040,78C11200,60,11360,48,11440,42L11520,36L11520,360L11440,360C11360,360,11200,360,11040,360C10880,360,10720,360,10560,360C10400,360,10240,360,10080,360C9920,360,9760,360,9600,360C9440,360,9280,360,9120,360C8960,360,8800,360,8640,360C8480,360,8320,360,8160,360C8000,360,7840,360,7680,360C7520,360,7360,360,7200,360C7040,360,6880,360,6720,360C6560,360,6400,360,6240,360C6080,360,5920,360,5760,360C5600,360,5440,360,5280,360C5120,360,4960,360,4800,360C4640,360,4480,360,4320,360C4160,360,4000,360,3840,360C3680,360,3520,360,3360,360C3200,360,3040,360,2880,360C2720,360,2560,360,2400,360C2240,360,2080,360,1920,360C1760,360,1600,360,1440,360C1280,360,1120,360,960,360C800,360,640,360,480,360C320,360,160,360,80,360L0,360Z"/></svg>