<?xml version="1.0" standalone="no"?>
<svg xmlns:xlink="http://www.w3.org/1999/xlink" id="wave" style="transform:rotate(0deg); transition: 0.3s" viewBox="0 0 1440 150" version="1.1" xmlns="http://www.w3.org/2000/svg"><defs><linearGradient id="sw-gradient-0" x1="0" x2="0" y1="1" y2="0"><stop stop-color="rgba(231, 231, 231, 1)" offset="0%"/><stop stop-color="rgba(231, 231, 231, 1)" offset="100%"/></linearGradient></defs><path style="transform:translate(0, 0px); opacity:1" fill="url(#sw-gradient-0)" d="M0,30L480,90L960,120L1440,15L1920,30L2400,0L2880,30L3360,30L3840,60L4320,120L4800,15L5280,135L5760,120L6240,30L6720,30L7200,90L7680,60L8160,135L8640,120L9120,90L9600,90L10080,135L10560,90L11040,45L11520,135L11520,150L11040,150L10560,150L10080,150L9600,150L9120,150L8640,150L8160,150L7680,150L7200,150L6720,150L6240,150L5760,150L5280,150L4800,150L4320,150L3840,150L3360,150L2880,150L2400,150L1920,150L1440,150L960,150L480,150L0,150Z"/></svg>