<?xml version="1.0" standalone="no"?>
<svg xmlns:xlink="http://www.w3.org/1999/xlink" id="wave" style="transform:rotate(0deg); transition: 0.3s" viewBox="0 0 1440 250" version="1.1" xmlns="http://www.w3.org/2000/svg"><defs><linearGradient id="sw-gradient-0" x1="0" x2="0" y1="1" y2="0"><stop stop-color="rgba(255, 245.791, 242.833, 1)" offset="0%"/><stop stop-color="rgba(201.183, 201.183, 201.183, 0)" offset="100%"/></linearGradient></defs><path style="transform:translate(0, 0px); opacity:1" fill="url(#sw-gradient-0)" d="M0,50L60,66.7C120,83,240,117,360,141.7C480,167,600,183,720,162.5C840,142,960,83,1080,58.3C1200,33,1320,42,1440,37.5C1560,33,1680,17,1800,16.7C1920,17,2040,33,2160,41.7C2280,50,2400,50,2520,58.3C2640,67,2760,83,2880,108.3C3000,133,3120,167,3240,154.2C3360,142,3480,83,3600,87.5C3720,92,3840,158,3960,187.5C4080,217,4200,208,4320,179.2C4440,150,4560,100,4680,75C4800,50,4920,50,5040,66.7C5160,83,5280,117,5400,125C5520,133,5640,117,5760,129.2C5880,142,6000,183,6120,200C6240,217,6360,208,6480,195.8C6600,183,6720,167,6840,158.3C6960,150,7080,150,7200,162.5C7320,175,7440,200,7560,200C7680,200,7800,175,7920,150C8040,125,8160,100,8280,112.5C8400,125,8520,175,8580,200L8640,225L8640,250L8580,250C8520,250,8400,250,8280,250C8160,250,8040,250,7920,250C7800,250,7680,250,7560,250C7440,250,7320,250,7200,250C7080,250,6960,250,6840,250C6720,250,6600,250,6480,250C6360,250,6240,250,6120,250C6000,250,5880,250,5760,250C5640,250,5520,250,5400,250C5280,250,5160,250,5040,250C4920,250,4800,250,4680,250C4560,250,4440,250,4320,250C4200,250,4080,250,3960,250C3840,250,3720,250,3600,250C3480,250,3360,250,3240,250C3120,250,3000,250,2880,250C2760,250,2640,250,2520,250C2400,250,2280,250,2160,250C2040,250,1920,250,1800,250C1680,250,1560,250,1440,250C1320,250,1200,250,1080,250C960,250,840,250,720,250C600,250,480,250,360,250C240,250,120,250,60,250L0,250Z"/></svg>