<?xml version="1.0" standalone="no"?>
<svg xmlns:xlink="http://www.w3.org/1999/xlink" id="wave" style="transform:rotate(0deg); transition: 0.3s" viewBox="0 0 1440 180" version="1.1" xmlns="http://www.w3.org/2000/svg"><defs><linearGradient id="sw-gradient-0" x1="0" x2="0" y1="1" y2="0"><stop stop-color="rgba(231, 231, 231, 1)" offset="0%"/><stop stop-color="rgba(201.183, 201.183, 201.183, 0)" offset="100%"/></linearGradient></defs><path style="transform:translate(0, 0px); opacity:1" fill="url(#sw-gradient-0)" d="M0,36L60,48C120,60,240,84,360,102C480,120,600,132,720,117C840,102,960,60,1080,42C1200,24,1320,30,1440,27C1560,24,1680,12,1800,12C1920,12,2040,24,2160,30C2280,36,2400,36,2520,42C2640,48,2760,60,2880,78C3000,96,3120,120,3240,111C3360,102,3480,60,3600,63C3720,66,3840,114,3960,135C4080,156,4200,150,4320,129C4440,108,4560,72,4680,54C4800,36,4920,36,5040,48C5160,60,5280,84,5400,90C5520,96,5640,84,5760,93C5880,102,6000,132,6120,144C6240,156,6360,150,6480,141C6600,132,6720,120,6840,114C6960,108,7080,108,7200,117C7320,126,7440,144,7560,144C7680,144,7800,126,7920,108C8040,90,8160,72,8280,81C8400,90,8520,126,8580,144L8640,162L8640,180L8580,180C8520,180,8400,180,8280,180C8160,180,8040,180,7920,180C7800,180,7680,180,7560,180C7440,180,7320,180,7200,180C7080,180,6960,180,6840,180C6720,180,6600,180,6480,180C6360,180,6240,180,6120,180C6000,180,5880,180,5760,180C5640,180,5520,180,5400,180C5280,180,5160,180,5040,180C4920,180,4800,180,4680,180C4560,180,4440,180,4320,180C4200,180,4080,180,3960,180C3840,180,3720,180,3600,180C3480,180,3360,180,3240,180C3120,180,3000,180,2880,180C2760,180,2640,180,2520,180C2400,180,2280,180,2160,180C2040,180,1920,180,1800,180C1680,180,1560,180,1440,180C1320,180,1200,180,1080,180C960,180,840,180,720,180C600,180,480,180,360,180C240,180,120,180,60,180L0,180Z"/></svg>