<?xml version="1.0" standalone="no"?>
<svg xmlns:xlink="http://www.w3.org/1999/xlink" id="wave" style="transform:rotate(0deg); transition: 0.3s" viewBox="0 0 1440 160" version="1.1" xmlns="http://www.w3.org/2000/svg"><defs><linearGradient id="sw-gradient-0" x1="0" x2="0" y1="1" y2="0"><stop stop-color="rgba(243, 106, 62, 0)" offset="0%"/><stop stop-color="rgba(255, 179, 11, 1)" offset="100%"/></linearGradient></defs><path style="transform:translate(0, 0px); opacity:1" fill="url(#sw-gradient-0)" d="M0,80L60,82.7C120,85,240,91,360,93.3C480,96,600,96,720,80C840,64,960,32,1080,24C1200,16,1320,32,1440,34.7C1560,37,1680,27,1800,26.7C1920,27,2040,37,2160,40C2280,43,2400,37,2520,53.3C2640,69,2760,107,2880,122.7C3000,139,3120,133,3240,128C3360,123,3480,117,3600,98.7C3720,80,3840,48,3960,37.3C4080,27,4200,37,4320,53.3C4440,69,4560,91,4680,93.3C4800,96,4920,80,5040,72C5160,64,5280,64,5400,56C5520,48,5640,32,5760,21.3C5880,11,6000,5,6120,16C6240,27,6360,53,6480,58.7C6600,64,6720,48,6840,48C6960,48,7080,64,7200,58.7C7320,53,7440,27,7560,24C7680,21,7800,43,7920,61.3C8040,80,8160,96,8280,96C8400,96,8520,80,8580,72L8640,64L8640,160L8580,160C8520,160,8400,160,8280,160C8160,160,8040,160,7920,160C7800,160,7680,160,7560,160C7440,160,7320,160,7200,160C7080,160,6960,160,6840,160C6720,160,6600,160,6480,160C6360,160,6240,160,6120,160C6000,160,5880,160,5760,160C5640,160,5520,160,5400,160C5280,160,5160,160,5040,160C4920,160,4800,160,4680,160C4560,160,4440,160,4320,160C4200,160,4080,160,3960,160C3840,160,3720,160,3600,160C3480,160,3360,160,3240,160C3120,160,3000,160,2880,160C2760,160,2640,160,2520,160C2400,160,2280,160,2160,160C2040,160,1920,160,1800,160C1680,160,1560,160,1440,160C1320,160,1200,160,1080,160C960,160,840,160,720,160C600,160,480,160,360,160C240,160,120,160,60,160L0,160Z"/><defs><linearGradient id="sw-gradient-1" x1="0" x2="0" y1="1" y2="0"><stop stop-color="rgba(243, 106, 62, 0.03)" offset="0%"/><stop stop-color="rgba(255, 179, 11, 1)" offset="100%"/></linearGradient></defs><path style="transform:translate(0, 50px); opacity:0.9" fill="url(#sw-gradient-1)" d="M0,0L60,2.7C120,5,240,11,360,29.3C480,48,600,80,720,85.3C840,91,960,69,1080,66.7C1200,64,1320,80,1440,72C1560,64,1680,32,1800,26.7C1920,21,2040,43,2160,58.7C2280,75,2400,85,2520,82.7C2640,80,2760,64,2880,66.7C3000,69,3120,91,3240,96C3360,101,3480,91,3600,96C3720,101,3840,123,3960,125.3C4080,128,4200,112,4320,90.7C4440,69,4560,43,4680,26.7C4800,11,4920,5,5040,5.3C5160,5,5280,11,5400,29.3C5520,48,5640,80,5760,90.7C5880,101,6000,91,6120,88C6240,85,6360,91,6480,96C6600,101,6720,107,6840,93.3C6960,80,7080,48,7200,42.7C7320,37,7440,59,7560,66.7C7680,75,7800,69,7920,58.7C8040,48,8160,32,8280,29.3C8400,27,8520,37,8580,42.7L8640,48L8640,160L8580,160C8520,160,8400,160,8280,160C8160,160,8040,160,7920,160C7800,160,7680,160,7560,160C7440,160,7320,160,7200,160C7080,160,6960,160,6840,160C6720,160,6600,160,6480,160C6360,160,6240,160,6120,160C6000,160,5880,160,5760,160C5640,160,5520,160,5400,160C5280,160,5160,160,5040,160C4920,160,4800,160,4680,160C4560,160,4440,160,4320,160C4200,160,4080,160,3960,160C3840,160,3720,160,3600,160C3480,160,3360,160,3240,160C3120,160,3000,160,2880,160C2760,160,2640,160,2520,160C2400,160,2280,160,2160,160C2040,160,1920,160,1800,160C1680,160,1560,160,1440,160C1320,160,1200,160,1080,160C960,160,840,160,720,160C600,160,480,160,360,160C240,160,120,160,60,160L0,160Z"/><defs><linearGradient id="sw-gradient-2" x1="0" x2="0" y1="1" y2="0"><stop stop-color="rgba(243, 106, 62, 0.08)" offset="0%"/><stop stop-color="rgba(255, 179, 11, 1)" offset="100%"/></linearGradient></defs><path style="transform:translate(0, 100px); opacity:0.8" fill="url(#sw-gradient-2)" d="M0,144L60,120C120,96,240,48,360,34.7C480,21,600,43,720,53.3C840,64,960,64,1080,56C1200,48,1320,32,1440,26.7C1560,21,1680,27,1800,32C1920,37,2040,43,2160,61.3C2280,80,2400,112,2520,120C2640,128,2760,112,2880,88C3000,64,3120,32,3240,29.3C3360,27,3480,53,3600,53.3C3720,53,3840,27,3960,26.7C4080,27,4200,53,4320,66.7C4440,80,4560,80,4680,74.7C4800,69,4920,59,5040,64C5160,69,5280,91,5400,106.7C5520,123,5640,133,5760,117.3C5880,101,6000,59,6120,37.3C6240,16,6360,16,6480,37.3C6600,59,6720,101,6840,114.7C6960,128,7080,112,7200,88C7320,64,7440,32,7560,32C7680,32,7800,64,7920,72C8040,80,8160,64,8280,72C8400,80,8520,112,8580,128L8640,144L8640,160L8580,160C8520,160,8400,160,8280,160C8160,160,8040,160,7920,160C7800,160,7680,160,7560,160C7440,160,7320,160,7200,160C7080,160,6960,160,6840,160C6720,160,6600,160,6480,160C6360,160,6240,160,6120,160C6000,160,5880,160,5760,160C5640,160,5520,160,5400,160C5280,160,5160,160,5040,160C4920,160,4800,160,4680,160C4560,160,4440,160,4320,160C4200,160,4080,160,3960,160C3840,160,3720,160,3600,160C3480,160,3360,160,3240,160C3120,160,3000,160,2880,160C2760,160,2640,160,2520,160C2400,160,2280,160,2160,160C2040,160,1920,160,1800,160C1680,160,1560,160,1440,160C1320,160,1200,160,1080,160C960,160,840,160,720,160C600,160,480,160,360,160C240,160,120,160,60,160L0,160Z"/></svg>